<svg width="48" height="48" viewBox="0 0 48 48" fill="none" xmlns="http://www.w3.org/2000/svg">
<rect width="48" height="48" fill="white"/>
<path d="M32.5 41.5C32.5 41.826 32.3329 42.3074 31.6582 42.9174C30.9835 43.5273 29.923 44.1453 28.4851 44.6951C25.6195 45.7908 21.5593 46.5 17 46.5C12.4407 46.5 8.3805 45.7908 5.51489 44.6951C4.07696 44.1453 3.01653 43.5273 2.34184 42.9174C1.6671 42.3074 1.5 41.826 1.5 41.5C1.5 41.174 1.6671 40.6926 2.34184 40.0826C3.01653 39.4727 4.07696 38.8547 5.51489 38.3049C8.3805 37.2092 12.4407 36.5 17 36.5C21.5593 36.5 25.6195 37.2092 28.4851 38.3049C29.923 38.8547 30.9835 39.4727 31.6582 40.0826C32.3329 40.6926 32.5 41.174 32.5 41.5Z" stroke="#142C5E" stroke-width="3"/>
<path d="M29.5 12.1263C29.5 15.2139 28.0015 22.3607 25.5017 28.7803C24.2582 31.9738 22.8084 34.876 21.25 36.9515C19.6382 39.0979 18.1869 40 17 40C15.8131 40 14.3618 39.0979 12.75 36.9515C11.1916 34.876 9.7418 31.9738 8.49827 28.7803C5.9985 22.3607 4.5 15.2139 4.5 12.1263C4.5 6.45264 9.88687 1.5 17 1.5C24.1131 1.5 29.5 6.45264 29.5 12.1263Z" fill="white" stroke="#142C5E" stroke-width="3"/>
<circle cx="17" cy="15" r="4.5" stroke="#FF489B" stroke-width="3"/>
</svg>
