<svg width="48" height="48" viewBox="0 0 48 48" fill="none" xmlns="http://www.w3.org/2000/svg">
<rect width="48" height="48" fill="white"/>
<mask id="path-1-inside-1" fill="white">
<path fill-rule="evenodd" clip-rule="evenodd" d="M18.7969 8C17.9578 8 17.208 8.52372 16.9191 9.31149L15.5667 13H8C3.58172 13 0 16.5817 0 21V37C0 41.4183 3.58172 45 8 45H40C44.4183 45 48 41.4183 48 37V21C48 16.5817 44.4183 13 40 13H32.1481L30.6185 9.24541C30.3117 8.49234 29.5795 8 28.7663 8H18.7969Z"/>
</mask>
<path d="M16.9191 9.31149L19.7358 10.3443V10.3442L16.9191 9.31149ZM15.5667 13V16H17.662L18.3833 14.0328L15.5667 13ZM32.1481 13L29.3699 14.1319L30.131 16H32.1481V13ZM30.6185 9.24541L33.3968 8.11352L33.3968 8.11351L30.6185 9.24541ZM19.7358 10.3442C19.5913 10.7381 19.2164 11 18.7969 11V5C16.6992 5 14.8246 6.3093 14.1025 8.27873L19.7358 10.3442ZM18.3833 14.0328L19.7358 10.3443L14.1025 8.27873L12.75 11.9672L18.3833 14.0328ZM8 16H15.5667V10H8V16ZM3 21C3 18.2386 5.23858 16 8 16V10C1.92487 10 -3 14.9249 -3 21H3ZM3 37V21H-3V37H3ZM8 42C5.23858 42 3 39.7614 3 37H-3C-3 43.0751 1.92487 48 8 48V42ZM40 42H8V48H40V42ZM45 37C45 39.7614 42.7614 42 40 42V48C46.0751 48 51 43.0751 51 37H45ZM45 21V37H51V21H45ZM40 16C42.7614 16 45 18.2386 45 21H51C51 14.9249 46.0751 10 40 10V16ZM32.1481 16H40V10H32.1481V16ZM27.8402 10.3773L29.3699 14.1319L34.9264 11.8681L33.3968 8.11352L27.8402 10.3773ZM28.7663 11C28.3597 11 27.9936 10.7538 27.8402 10.3773L33.3968 8.11351C32.6298 6.23085 30.7992 5 28.7663 5V11ZM18.7969 11H28.7663V5H18.7969V11Z" fill="#142C5D" mask="url(#path-1-inside-1)"/>
<circle cx="24" cy="29" r="6.5" stroke="#FF489B" stroke-width="3"/>
<path d="M34 20H35H40" stroke="#152C5B" stroke-width="3" stroke-linecap="round" stroke-linejoin="round"/>
</svg>
